#!OML:ASF H:\Terrain\Patient Classification 1\Walking\liu\liu.ASF
:FULLY-SPECIFIED
:DEGREES
106
root 9.40737 16.2945 -22.498 3.52113 0.986836 4.00154
lowerback -7.88833 -2.60543 -4.34945
upperback -0.415482 -3.15836 1.80664
thorax 4.33223 -1.67016 3.95691
lowerneck -20.1694 -4.94507 -12.2974
upperneck 20.9115 -5.85047 11.0816
head 10.7761 -2.37195 5.18444
rclavicle 3.42966e-014 -2.54444e-014
rhumerus -44.8845 10.254 -86.493
rradius 36.7597
rwrist -20.3694
rhand -29.7095 -23.4478
rfingers 7.12502
rthumb -3.03687 -53.4059
lclavicle 3.42966e-014 -2.54444e-014
lhumerus -21.6112 -25.6076 88.6104
lradius 40.2418
lwrist 12.5408
lhand -15.1416 -24.884
lfingers 7.12502
lthumb 11.0282 4.80632
rfemur -36.6502 7.07626 12.6709
rtibia 34.9488
rfoot -20.8809 -7.12677
rtoes -17.2342
lfemur 5.25256 0.31682 -29.1039
ltibia 9.74187
lfoot -16.2577 4.77688
ltoes -3.89851
107
root 9.40429 16.2813 -22.3653 3.79038 1.25486 3.88478
lowerback -8.16368 -2.65334 -4.2442
upperback -0.557652 -3.22445 1.87851
thorax 4.34321 -1.69871 3.95678
lowerneck -19.9784 -4.9499 -12.3686
upperneck 20.9691 -5.83978 10.995
head 10.7588 -2.38867 5.16774
rclavicle -7.04443e-015 1.19271e-014
rhumerus -45.0386 10.1015 -86.3917
rradius 36.5192
rwrist -20.2164
rhand -30.0466 -23.5787
rfingers 7.12502
rthumb -3.3625 -53.532
lclavicle -7.04443e-015 1.19271e-014
lhumerus -22.0616 -25.9604 89.0212
lradius 40.7168
lwrist 12.8339
lhand -15.1844 -24.8507
lfingers 7.12502
lthumb 10.9869 4.84179
rfemur -37.2847 7.59016 12.3308
rtibia 33.826
rfoot -20.9231 -7.15933
rtoes -18.8603
lfemur 6.40705 0.388577 -28.8837
ltibia 7.85186
lfoot -15.6988 4.41042
ltoes -2.92848
108
root 9.39989 16.2567 -22.235 3.80583 1.64183 4.10824
lowerback -8.17832 -2.76316 -4.49656
upperback -0.588747 -3.34606 1.8548
thorax 4.34479 -1.76304 4.05865
lowerneck -20.014 -4.97433 -12.6585
upperneck 21.2408 -5.85383 11.2049
head 10.8843 -2.3953 5.30419
rclavicle 1.4884e-014 2.14687e-014
rhumerus -45.3905 10.1124 -86.4358
rradius 36.5297
rwrist -19.9163
rhand -30.2595 -24.0008
rfingers 7.12502
rthumb -3.56803 -53.9507
lclavicle 1.4884e-014 2.14687e-014
lhumerus -22.2938 -25.9287 89.3211
lradius 40.9782
lwrist 12.7884
lhand -14.896 -25.1086
lfingers 7.12502
lthumb 11.265 4.56888
rfemur -37.6788 7.91192 11.6497
rtibia 32.7932
rfoot -21.0359 -7.08005
rtoes -19.9287
lfemur 8.19997 0.363443 -29.0208
ltibia 5.30313
lfoot -14.8109 4.08802
ltoes -2.85827
109
root 9.39474 16.2455 -22.108 3.70266 1.96518 4.34965
lowerback -7.46111 -2.94966 -5.46199
upperback -0.98761 -3.57187 2.42561
thorax 3.64785 -1.87222 5.21582
lowerneck -20.0031 -4.94188 -13.1746
upperneck 21.7731 -5.57866 10.8145
head 11.0439 -2.36356 5.30657
rclavicle -3.34952e-014 1.03368e-014
rhumerus -46.4347 11.2572 -86.0029
rradius 36.8949
rwrist -19.9402
rhand -30.3596 -24.633
rfingers 7.12502
rthumb -3.66472 -54.5812
lclavicle -3.34952e-014 1.03368e-014
lhumerus -23.2012 -25.2501 90.724
lradius 41.2493
lwrist 12.576
lhand -14.802 -25.1927
lfingers 7.12502
lthumb 11.3557 4.47988
rfemur -37.9551 8.41086 10.889
rtibia 31.8672
rfoot -21.1815 -6.98954
rtoes -20.1912
lfemur 11.5659 0.412811 -29.1578
ltibia -3.18055e-014
lfoot -12.6419 3.67481
ltoes -3.54418
110
root 9.39041 16.2424 -21.9772 3.7383 2.27814 4.31718
lowerback -8.21978 -2.91941 -4.47661
upperback -0.520103 -3.54347 1.6326
thorax 4.44517 -1.86122 3.78523
lowerneck -19.9331 -4.92596 -12.5274
upperneck 21.2815 -5.87949 11.3497
head 10.8879 -2.38188 5.33453
rclavicle -3.18055e-014 7.15625e-015
rhumerus -45.9019 10.2153 -86.7959
rradius 36.5875
rwrist -19.8099
rhand -30.5261 -24.3508
rfingers 7.12502
rthumb -3.82551 -54.2962
lclavicle -3.18055e-014 7.15625e-015
lhumerus -22.9615 -26.5805 89.6452
lradius 41.7429
lwrist 13.0851
lhand -14.3534 -25.2231
lfingers 7.12502
lthumb 11.7883 4.42511
rfemur -38.3788 9.02833 10.3456
rtibia 31.0589
rfoot -21.282 -7.16942
rtoes -21.5565
lfemur 12.0359 0.470804 -29.0308
ltibia -6.36111e-015
lfoot -12.9836 3.37997
ltoes -4.35637
